inDegrees=no
num_controls=7
num_derivatives=13
num_iterations=56
num_multipliers=7
num_parameters=0
num_slacks=7
num_states=26
objective=0.426088
objective_accelerations=0.060927
objective_balance=0.001394
objective_effort=0.015261
objective_height=0.342557
objective_ligament=0.005948
solver_duration=809.239750
status=Solve_Succeeded
success=true
DataType=double
version=3
OpenSimVersion=4.5
endheader
time	/jointset/ground_pelvis/pelvis_tilt/value	/jointset/ground_pelvis/pelvis_tx/value	/jointset/ground_pelvis/pelvis_ty/value	/jointset/hip_l/hip_flexion_l/value	/jointset/hip_l/hip_adduction_l/value	/jointset/hip_l/hip_rotation_l/value	/jointset/back/lumbar_extension/value	/jointset/patellofemoral_l/patellar_flexion_l/value	/jointset/knee_l/knee_flexion_l/value	/jointset/knee_l/knee_adduction_l/value	/jointset/knee_l/knee_rotation_l/value	/jointset/ankle_l/ankle_angle_l/value	/jointset/subtalar_l/subtalar_angle_l/value	/jointset/ground_pelvis/pelvis_tilt/speed	/jointset/ground_pelvis/pelvis_tx/speed	/jointset/ground_pelvis/pelvis_ty/speed	/jointset/hip_l/hip_flexion_l/speed	/jointset/hip_l/hip_adduction_l/speed	/jointset/hip_l/hip_rotation_l/speed	/jointset/back/lumbar_extension/speed	/jointset/patellofemoral_l/patellar_flexion_l/speed	/jointset/knee_l/knee_flexion_l/speed	/jointset/knee_l/knee_adduction_l/speed	/jointset/knee_l/knee_rotation_l/speed	/jointset/ankle_l/ankle_angle_l/speed	/jointset/subtalar_l/subtalar_angle_l/speed	/forceset/tau_hip_flexion_l	/forceset/tau_hip_adduction_l	/forceset/tau_hip_rotation_l	/forceset/tau_knee_flexion_l	/forceset/tau_ankle_angle_l	/forceset/tau_subtalar_angle_l	/forceset/tau_lumbar_extension	lambda_cid13_p0	lambda_cid13_p1	lambda_cid13_p2	lambda_cid13_p3	lambda_cid13_p4	lambda_cid13_p5	lambda_cid14_p0	/jointset/ground_pelvis/pelvis_tilt/accel	/jointset/ground_pelvis/pelvis_tx/accel	/jointset/ground_pelvis/pelvis_ty/accel	/jointset/hip_l/hip_flexion_l/accel	/jointset/hip_l/hip_adduction_l/accel	/jointset/hip_l/hip_rotation_l/accel	/jointset/back/lumbar_extension/accel	/jointset/patellofemoral_l/patellar_flexion_l/accel	/jointset/knee_l/knee_flexion_l/accel	/jointset/knee_l/knee_adduction_l/accel	/jointset/knee_l/knee_rotation_l/accel	/jointset/ankle_l/ankle_angle_l/accel	/jointset/subtalar_l/subtalar_angle_l/accel	gamma_cid13_p0	gamma_cid13_p1	gamma_cid13_p2	gamma_cid13_p3	gamma_cid13_p4	gamma_cid13_p5	gamma_cid14_p0
0.5	-0.2127246031648496	0.02374188542636352	0.7680772629920711	1.00741750744187	-0.3610951554244907	-0.0002668077101243073	-0.403506365743071	0.973505908878522	0.973505908879664	-0.02712195054246099	-0.1744492185197233	0.3085876218912251	0.1644149361775693	-0.7384502675103813	-0.1683935171719942	-0.5410079463162232	2.414571272343517	0.0433815200231386	0.5406564965935317	-0.2924514557279025	2.039417695011754	2.039417695011928	0.3228343753507187	0.001590003591458522	0.5320667680934853	0.28077770202326	-0.09562799152080555	0.05114755837531569	-0.002273708677157184	-0.220182735209519	0.04103708583857879	-0.004200578500530745	0.1120357389047887	-12.87091868526312	8.474876768329162	-6.654524273042687	-7.401804579198067	-439.6492594577747	-44.50385558036133	-4.409309431454049	0.2337857116488665	0.5633925325145828	-0.4787743821116355	-1.276266877251115	0.08232228082023037	-0.7804160811583457	1.501281848626451	-1.57413006272029	-1.574130062720253	-0.2102178325172538	0.001903967775335234	-0.6887348731387006	0.1519590734214989	-5.012980988930577e-07	3.031991172629795e-08	6.958264563361112e-06	4.343904774118737e-07	-1.314738393272774e-06	-8.143227880832459e-07	-8.496749673177623e-07
0.51	-0.220095385013255	0.02208628893853443	0.7626445144958356	1.031494873563103	-0.3606599695362764	0.005107297408066435	-0.4063570155090697	0.9938181261880507	0.9938181261890988	-0.02391438588890623	-0.1744330280094265	0.3138722261145349	0.1672257065641878	-0.7355971351437821	-0.1627161546268291	-0.5454240981522651	2.400605183629932	0.04364852127252142	0.5341191581297027	-0.2776930585591725	2.022774259995165	2.022774259995271	0.3186778852580439	0.00161711507076137	0.5247820767582143	0.2813268131550016	-0.10018059502079	0.05219439366011903	-0.002698837790299237	-0.2225012230345166	0.03926298821947925	-0.003674036572095609	0.1154523771623755	-13.62026488270127	8.53371441542159	-6.842449731299846	-7.113178301016205	-442.7698759216291	-44.54554425303329	-3.804537502829219	0.3273933917315362	0.5714425533643686	-0.4056454369875464	-1.501351522879343	-0.003255466595616997	-0.5980040116148732	1.460934487994368	-1.747007511873091	-1.74700751188339	-0.5183881022519782	-0.0001990948745334739	-0.7591404766250539	-0.001905538121623533	-4.79387316389452e-07	3.848214133089944e-07	6.942937603790539e-06	4.766916114506199e-07	-1.257089897335891e-06	-4.178749732397146e-07	-8.276413353677483e-07
0.52	-0.2274343722594843	0.02048777296372635	0.7571710825107117	1.055423664466305	-0.3602225425382864	0.01041450688509284	-0.4090605181359814	1.013956397689261	1.013956397690222	-0.02074839083717873	-0.1744172291509132	0.3190818225819115	0.1700403095278893	-0.7320913470745268	-0.1569774145677893	-0.5491446440938497	2.38485622873766	0.04382974197819189	0.5272773683610822	-0.2630220279105136	2.004628533348773	2.004628533348809	0.3145204549809907	0.00151167323477245	0.5170652169067915	0.2815442174398581	-0.1047331985207599	0.05324122894491003	-0.003123966903261281	-0.2248197108595184	0.03748889060037076	-0.003147494643684313	0.1188690154199795	-14.36419858700916	8.582804330523016	-7.018765698039453	-6.878674719873694	-445.8121752812135	-44.70446475425451	-3.250315423673739	0.3643168521801645	0.5756680352894987	-0.3396532032201507	-1.63284011298842	0.06516617207774061	-0.8413063421166928	1.483808544612289	-1.874588388681104	-1.874588388681311	-0.210405869392945	-0.02460669528309433	-0.7751685763691203	0.08561770404443969	-4.514641146032859e-07	8.086950264267618e-07	6.893157722208052e-06	5.248324713676661e-07	-1.189896747374541e-06	2.337808159349424e-08	-7.951557094732644e-07
0.53	-0.2347354684744206	0.01894687209847672	0.7516639490718342	1.079186622657976	-0.3597833132501778	0.01565258031918691	-0.4116178745567329	1.033905848204737	1.033905848205923	-0.0176239832982275	-0.1744023290201882	0.3242121848724935	0.1728559288344853	-0.7280449191705679	-0.151199845866456	-0.5521591075675121	2.367460675654963	0.04401778776145374	0.5202908337716822	-0.2484949054956216	1.98500315893143	1.985003158931443	0.3103701438129611	0.001454024228171277	0.5089322540737491	0.2815369691265875	-0.1089170280802724	0.05390578051795619	-0.00338590470603849	-0.2278199666628598	0.03631578536729041	-0.002750266037454151	0.1219738071858665	-14.94079130332596	8.689629247664744	-7.239555895595193	-6.690615747715815	-449.00039200604	-44.89615235653495	-2.74536396111696	0.4372322562969421	0.5793482035712614	-0.264133422993383	-1.834169707347147	-0.00523374693041317	-0.635016583912716	1.43031670164424	-2.045117972030575	-2.045117972033839	-0.5158289671884435	0.002858391442751598	-0.8435752623002065	-0.05127967654050523	-4.211822344945966e-07	9.020261090960645e-07	6.59301078167473e-06	5.171388599439566e-07	-1.104919039690358e-06	2.661903039900338e-07	-7.597041847564973e-07
0.54	-0.2419936151109627	0.01746385630344361	0.7461303128975084	1.102767373958533	-0.3593423750099128	0.02081925049407515	-0.4140313292309922	1.053651323775288	1.053651323776692	-0.01454077591630701	-0.1743881649005611	0.3292589745096384	0.175669998942443	-0.7235014313948713	-0.1454004005244844	-0.5544451911834032	2.348414850514785	0.04417153240948408	0.5129967165198404	-0.2342416786120619	1.963833544363291	1.963833544363283	0.3062804235777122	0.001364471013224775	0.5003506862195695	0.2812343777122094	-0.1131008576397649	0.05457033209100712	-0.003647842508951042	-0.2308202224662068	0.03514268013420755	-0.002353037431215516	0.1250785989517745	-15.51355216767113	8.788121068152606	-7.450261828907815	-6.554348739059606	-452.1318231005886	-45.1989746375641	-2.288271163427088	0.4637288265278225	0.5800433634171027	-0.1939772316658998	-1.962894524484803	0.05830594503141213	-0.9028228746050426	1.429029438345881	-2.183436418840449	-2.183436418840254	-0.198287682836839	-0.03098753695221662	-0.8648895805966125	0.02654908382289848	-3.882907528375839e-07	6.296505623330187e-07	6.015861988685162e-06	4.476709398028148e-07	-1.000264800057508e-06	2.894509670949367e-07	-7.209712400661403e-07
0.55	-0.249203254909875	0.01603889550142349	0.740577427664981	1.126149204781598	-0.3589001023332503	0.0259113507935989	-0.4163030171797996	1.073178069041072	1.073178069042349	-0.01149805382217679	-0.1743755594360705	0.3342180678530743	0.1784795900320708	-0.718282088564337	-0.1395937226643021	-0.556012724349457	2.327646564280595	0.04425965390246858	0.5055274051748636	-0.2200834021658968	1.941317961208425	1.941317961208485	0.3021231900500821	0.001178399540893299	0.4914182906803048	0.2806104171077424	-0.1185045078161965	0.05588885637283702	-0.00379278629166136	-0.2321584936711834	0.03169224631448834	-0.002312008747074718	0.1290297790907746	-16.86562457757817	9.131209141482735	-7.646791303104067	-5.769876093446705	-455.3674839920324	-44.86296977987759	-1.877530054773081	0.5726827979341864	0.5807675354493097	-0.1204603493097857	-2.179549719744222	-0.02032375667538244	-0.6540049696482613	1.411103095372024	-2.315111432730441	-2.315111432720318	-0.5455258117701058	-0.008031534714854422	-0.9148630664597113	-0.1186384187692081	-2.937053856706308e-07	-7.751787542117002e-08	4.292149730338079e-06	2.444266715283966e-07	-7.466919457420907e-07	-5.386057576228323e-08	-5.641830923004385e-07
0.5600000000000001	-0.2563563721231629	0.01467195898563133	0.7350124033027454	1.14931420193295	-0.3584578262432783	0.03093175403862929	-0.4184327470946217	1.092473760041522	1.092473760042674	-0.008501120988121471	-0.1743639376027688	0.339086347535944	0.1812805875584165	-0.7121969142690708	-0.1337955432788926	-0.5568730171249653	2.305048116172081	0.04417221507116304	0.498657305621714	-0.2058500718149203	1.917622691296721	1.917622691296847	0.2971225715606898	0.001167744774914064	0.4821879541063054	0.279515665055768	-0.1239081579926075	0.05720738065466151	-0.003937730074248257	-0.2334967648761659	0.02824181249476029	-0.002270980062948716	0.1329809592297969	-18.21586605249549	9.467346129371668	-7.834636454949397	-5.019882178952599	-458.5537832137722	-44.62242484023285	-1.511372343654556	0.6368951194742827	0.5783436684625008	-0.05252915355676118	-2.328926899349221	0.02319388017339438	-0.7829805162396278	1.444040219308202	-2.419373770207984	-2.419373770208309	-0.3669646751893103	0.004095804318191096	-0.9244777875435816	-0.06760920567859129	-1.250873558917516e-07	-1.306437782364714e-06	1.192561313562017e-06	-1.193492145059478e-07	-3.144167538075992e-07	-8.370587657740363e-07	-2.657287008443278e-07
0.5700000000000001	-0.263445712735568	0.01336294351789161	0.7294423969628423	1.17224516811487	-0.3580156981920076	0.0358772009856102	-0.4204203795833016	1.111526026194364	1.111526026194573	-0.005548261171799531	-0.174354061910614	0.343861062672963	0.1840707483786584	-0.7056279087825766	-0.128006158336717	-0.5569951983433182	2.280880806910197	0.04423698903220462	0.4904801199333381	-0.1917687590007422	1.892556418272866	1.89255641827293	0.2933444940163909	0.0008433186521079413	0.4726847906909704	0.27844221735221	-0.1273745341803966	0.05709644299968396	-0.003992690204639996	-0.2377858283758869	0.02839946146819785	-0.001946142970947122	0.1355213781977417	-18.3844753378779	9.566326020035177	-8.090896841010874	-5.173345725352315	-461.8815782715501	-45.24531330037124	-1.1882037302961	0.6733800693239569	0.5793796726616213	0.02788129139444854	-2.500295497477554	-0.00413968501389867	-0.8280041338503963	1.376326850596149	-2.591352837080237	-2.591352837089194	-0.3992305480858409	-0.0455048439526683	-0.9738717009669058	-0.1379711374346836	-3.501843979596472e-08	-2.054963520497692e-06	-5.297405316447015e-07	-3.303073641837193e-07	-7.433090238965615e-08	-1.311400820938598e-06	-1.067973058793307e-07
0.58	-0.270468067931895	0.01211185065268702	0.7238751575902288	1.194926528692597	-0.3575733741689413	0.04074229276795549	-0.4222699689362152	1.130319409863243	1.130319409862516	-0.002636382381675382	-0.1743463890843505	0.348538618959344	0.1868480230049168	-0.6987998310525861	-0.1222110227718663	-0.5563196236669734	2.255126995333539	0.04421140942992217	0.4825862726964003	-0.1782414446616206	1.865846194504766	1.865846194504772	0.2889263663106577	0.0007271715944000509	0.4627561839780961	0.2769384262590407	-0.1308409103681656	0.05698550534466074	-0.004047650334352967	-0.2420748918756015	0.02855711044161327	-0.001621305879032709	0.1380617971657097	-18.55334749265179	9.657980867017994	-8.337571046887744	-5.348394637157008	-465.2235521777428	-45.90131055453539	-0.9067537968035779	0.6887095681736569	0.5794937929974978	0.1070220253827889	-2.646227362303637	0.005123167508615147	-0.7263128259520197	1.333240524296955	-2.748163919057056	-2.74816391905672	-0.4949747074761978	0.04575161733780203	-1.009566447051442	-0.153677883600893	-4.724604384559699e-08	-2.177859643435533e-06	-4.583668417844288e-07	-3.42247066513402e-07	-8.453814559790742e-08	-1.383511630720784e-06	-1.295702784376383e-07
